<svg xmlns="http://www.w3.org/2000/svg" xmlns:xlink="http://www.w3.org/1999/xlink" contentStyleType="text/css" height="999px" preserveAspectRatio="none" style="width:993px;height:999px;background:#FFFFFF;" version="1.1" viewBox="0 0 993 999" width="993px" zoomAndPan="magnify"><defs/><g><!--cluster Phpolar--><g id="cluster_Phpolar"><path d="M185.5,6 L247.5176,6 A3.75,3.75 0 0 1 250.0176,8.5 L257.0176,28.2969 L983.5,28.2969 A2.5,2.5 0 0 1 986,30.7969 L986,989.5 A2.5,2.5 0 0 1 983.5,992 L185.5,992 A2.5,2.5 0 0 1 183,989.5 L183,8.5 A2.5,2.5 0 0 1 185.5,6 " fill="none" style="stroke:#000000;stroke-width:1.5;"/><line style="stroke:#000000;stroke-width:1.5;" x1="183" x2="257.0176" y1="28.2969" y2="28.2969"/><text fill="#000000" font-family="sans-serif" font-size="14" font-weight="bold" lengthAdjust="spacing" textLength="61.0176" x="187" y="20.9951">Phpolar</text></g><!--cluster Phpolar--><g id="cluster_Phpolar"><path d="M209.5,49 L271.5176,49 A3.75,3.75 0 0 1 274.0176,51.5 L281.0176,71.2969 L959.5,71.2969 A2.5,2.5 0 0 1 962,73.7969 L962,965.5 A2.5,2.5 0 0 1 959.5,968 L209.5,968 A2.5,2.5 0 0 1 207,965.5 L207,51.5 A2.5,2.5 0 0 1 209.5,49 " fill="none" style="stroke:#000000;stroke-width:1.5;"/><line style="stroke:#000000;stroke-width:1.5;" x1="207" x2="281.0176" y1="71.2969" y2="71.2969"/><text fill="#000000" font-family="sans-serif" font-size="14" font-weight="bold" lengthAdjust="spacing" textLength="61.0176" x="211" y="63.9951">Phpolar</text></g><!--cluster Core--><g id="cluster_Core"><path d="M233.5,92 L270.792,92 A3.75,3.75 0 0 1 273.292,94.5 L280.292,114.2969 L935.5,114.2969 A2.5,2.5 0 0 1 938,116.7969 L938,941.5 A2.5,2.5 0 0 1 935.5,944 L233.5,944 A2.5,2.5 0 0 1 231,941.5 L231,94.5 A2.5,2.5 0 0 1 233.5,92 " fill="none" style="stroke:#000000;stroke-width:1.5;"/><line style="stroke:#000000;stroke-width:1.5;" x1="231" x2="280.292" y1="114.2969" y2="114.2969"/><text fill="#000000" font-family="sans-serif" font-size="14" font-weight="bold" lengthAdjust="spacing" textLength="36.292" x="235" y="106.9951">Core</text></g><!--cluster Exception--><g id="cluster_Exception"><path d="M283.5,135 L361.9854,135 A3.75,3.75 0 0 1 364.4854,137.5 L371.4854,157.2969 L618.5,157.2969 A2.5,2.5 0 0 1 621,159.7969 L621,215.5 A2.5,2.5 0 0 1 618.5,218 L283.5,218 A2.5,2.5 0 0 1 281,215.5 L281,137.5 A2.5,2.5 0 0 1 283.5,135 " fill="none" style="stroke:#000000;stroke-width:1.5;"/><line style="stroke:#000000;stroke-width:1.5;" x1="281" x2="371.4854" y1="157.2969" y2="157.2969"/><text fill="#000000" font-family="sans-serif" font-size="14" font-weight="bold" lengthAdjust="spacing" textLength="77.4854" x="285" y="149.9951">Exception</text></g><!--cluster Routing--><g id="cluster_Routing"><path d="M350.5,242 L413.3447,242 A3.75,3.75 0 0 1 415.8447,244.5 L422.8447,264.2969 L900,264.2969 A2.5,2.5 0 0 1 902.5,266.7969 L902.5,389.5 A2.5,2.5 0 0 1 900,392 L350.5,392 A2.5,2.5 0 0 1 348,389.5 L348,244.5 A2.5,2.5 0 0 1 350.5,242 " fill="none" style="stroke:#000000;stroke-width:1.5;"/><line style="stroke:#000000;stroke-width:1.5;" x1="348" x2="422.8447" y1="264.2969" y2="264.2969"/><text fill="#000000" font-family="sans-serif" font-size="14" font-weight="bold" lengthAdjust="spacing" textLength="61.8447" x="352" y="256.9951">Routing</text></g><!--cluster Validation--><g id="cluster_Validation"><path d="M257.5,416 L338.9248,416 A3.75,3.75 0 0 1 341.4248,418.5 L348.4248,438.2969 L644.5,438.2969 A2.5,2.5 0 0 1 647,440.7969 L647,606.5 A2.5,2.5 0 0 1 644.5,609 L257.5,609 A2.5,2.5 0 0 1 255,606.5 L255,418.5 A2.5,2.5 0 0 1 257.5,416 " fill="none" style="stroke:#000000;stroke-width:1.5;"/><line style="stroke:#000000;stroke-width:1.5;" x1="255" x2="348.4248" y1="438.2969" y2="438.2969"/><text fill="#000000" font-family="sans-serif" font-size="14" font-weight="bold" lengthAdjust="spacing" textLength="80.4248" x="259" y="430.9951">Validation</text></g><!--cluster Exception--><g id="cluster_Exception"><path d="M281.5,459 L359.9854,459 A3.75,3.75 0 0 1 362.4854,461.5 L369.4854,481.2969 L620.5,481.2969 A2.5,2.5 0 0 1 623,483.7969 L623,539.5 A2.5,2.5 0 0 1 620.5,542 L281.5,542 A2.5,2.5 0 0 1 279,539.5 L279,461.5 A2.5,2.5 0 0 1 281.5,459 " fill="none" style="stroke:#000000;stroke-width:1.5;"/><line style="stroke:#000000;stroke-width:1.5;" x1="279" x2="369.4854" y1="481.2969" y2="481.2969"/><text fill="#000000" font-family="sans-serif" font-size="14" font-weight="bold" lengthAdjust="spacing" textLength="77.4854" x="283" y="473.9951">Exception</text></g><!--class AbstractPropertyNameExtractor__class--><g id="elem_AbstractPropertyNameExtractor__class"><rect codeLine="15" fill="#F1F1F1" height="32" id="AbstractPropertyNameExtractor__class" rx="2.5" ry="2.5" style="stroke:#181818;stroke-width:0.5;" width="256.3281" x="323" y="829"/><ellipse cx="338" cy="845" fill="#A9DCDF" rx="11" ry="11" style="stroke:#181818;stroke-width:1;"/><path d="M338.1094,840.3438 L336.9531,845.4219 L339.2813,845.4219 L338.1094,840.3438 Z M336.625,838.1094 L339.6094,838.1094 L342.9688,850.5 L340.5156,850.5 L339.75,847.4375 L336.4688,847.4375 L335.7188,850.5 L333.2813,850.5 L336.625,838.1094 Z " fill="#000000"/><text fill="#000000" font-family="sans-serif" font-size="14" font-style="italic" lengthAdjust="spacing" textLength="224.3281" x="352" y="849.8467">AbstractPropertyNameExtractor</text></g><!--class PropertyValueSetterInterface__interface--><g id="elem_PropertyValueSetterInterface__interface"><rect codeLine="19" fill="#F1F1F1" height="32" id="PropertyValueSetterInterface__interface" rx="2.5" ry="2.5" style="stroke:#181818;stroke-width:0.5;" width="236.8525" x="332.5" y="896"/><ellipse cx="347.5" cy="912" fill="#B4A7E5" rx="11" ry="11" style="stroke:#181818;stroke-width:1;"/><path d="M343.4219,907.7656 L343.4219,905.6094 L350.8125,905.6094 L350.8125,907.7656 L348.3438,907.7656 L348.3438,915.8438 L350.8125,915.8438 L350.8125,918 L343.4219,918 L343.4219,915.8438 L345.8906,915.8438 L345.8906,907.7656 L343.4219,907.7656 Z " fill="#000000"/><text fill="#000000" font-family="sans-serif" font-size="14" font-style="italic" lengthAdjust="spacing" textLength="204.8525" x="361.5" y="916.8467">PropertyValueSetterInterface</text></g><!--class AbstractPropertyValueExtractor__class--><g id="elem_AbstractPropertyValueExtractor__class"><rect codeLine="23" fill="#F1F1F1" height="32" id="AbstractPropertyValueExtractor__class" rx="2.5" ry="2.5" style="stroke:#181818;stroke-width:0.5;" width="254.5576" x="667" y="896"/><ellipse cx="682" cy="912" fill="#A9DCDF" rx="11" ry="11" style="stroke:#181818;stroke-width:1;"/><path d="M682.1094,907.3438 L680.9531,912.4219 L683.2813,912.4219 L682.1094,907.3438 Z M680.625,905.1094 L683.6094,905.1094 L686.9688,917.5 L684.5156,917.5 L683.75,914.4375 L680.4688,914.4375 L679.7188,917.5 L677.2813,917.5 L680.625,905.1094 Z " fill="#000000"/><text fill="#000000" font-family="sans-serif" font-size="14" font-style="italic" lengthAdjust="spacing" textLength="222.5576" x="696" y="916.8467">AbstractPropertyValueExtractor</text></g><!--class DefaultColumnName__class--><g id="elem_DefaultColumnName__class"><rect codeLine="27" fill="#F1F1F1" height="32" id="DefaultColumnName__class" rx="2.5" ry="2.5" style="stroke:#181818;stroke-width:0.5;" width="178.0703" x="705.5" y="829"/><ellipse cx="720.5" cy="845" fill="#ADD1B2" rx="11" ry="11" style="stroke:#181818;stroke-width:1;"/><path d="M723.4688,850.6406 Q722.8906,850.9375 722.25,851.0781 Q721.6094,851.2344 720.9063,851.2344 Q718.4063,851.2344 717.0781,849.5938 Q715.7656,847.9375 715.7656,844.8125 Q715.7656,841.6875 717.0781,840.0313 Q718.4063,838.375 720.9063,838.375 Q721.6094,838.375 722.25,838.5313 Q722.9063,838.6875 723.4688,838.9844 L723.4688,841.7031 Q722.8438,841.125 722.25,840.8594 Q721.6563,840.5781 721.0313,840.5781 Q719.6875,840.5781 719,841.6563 Q718.3125,842.7188 718.3125,844.8125 Q718.3125,846.9063 719,847.9844 Q719.6875,849.0469 721.0313,849.0469 Q721.6563,849.0469 722.25,848.7813 Q722.8438,848.5 723.4688,847.9219 L723.4688,850.6406 Z " fill="#000000"/><text fill="#000000" font-family="sans-serif" font-size="14" lengthAdjust="spacing" textLength="146.0703" x="734.5" y="849.8467">DefaultColumnName</text></g><!--class DefaultLabelFormat__class--><g id="elem_DefaultLabelFormat__class"><rect codeLine="31" fill="#F1F1F1" height="32" id="DefaultLabelFormat__class" rx="2.5" ry="2.5" style="stroke:#181818;stroke-width:0.5;" width="171.002" x="709" y="762"/><ellipse cx="724" cy="778" fill="#ADD1B2" rx="11" ry="11" style="stroke:#181818;stroke-width:1;"/><path d="M726.9688,783.6406 Q726.3906,783.9375 725.75,784.0781 Q725.1094,784.2344 724.4063,784.2344 Q721.9063,784.2344 720.5781,782.5938 Q719.2656,780.9375 719.2656,777.8125 Q719.2656,774.6875 720.5781,773.0313 Q721.9063,771.375 724.4063,771.375 Q725.1094,771.375 725.75,771.5313 Q726.4063,771.6875 726.9688,771.9844 L726.9688,774.7031 Q726.3438,774.125 725.75,773.8594 Q725.1563,773.5781 724.5313,773.5781 Q723.1875,773.5781 722.5,774.6563 Q721.8125,775.7188 721.8125,777.8125 Q721.8125,779.9063 722.5,780.9844 Q723.1875,782.0469 724.5313,782.0469 Q725.1563,782.0469 725.75,781.7813 Q726.3438,781.5 726.9688,780.9219 L726.9688,783.6406 Z " fill="#000000"/><text fill="#000000" font-family="sans-serif" font-size="14" lengthAdjust="spacing" textLength="139.002" x="738" y="782.8467">DefaultLabelFormat</text></g><!--class PropertyTypeNotDeclared__class--><g id="elem_PropertyTypeNotDeclared__class"><rect codeLine="35" fill="#F1F1F1" height="32" id="PropertyTypeNotDeclared__class" rx="2.5" ry="2.5" style="stroke:#181818;stroke-width:0.5;" width="213.4736" x="344.5" y="762"/><ellipse cx="359.5" cy="778" fill="#ADD1B2" rx="11" ry="11" style="stroke:#181818;stroke-width:1;"/><path d="M362.4688,783.6406 Q361.8906,783.9375 361.25,784.0781 Q360.6094,784.2344 359.9063,784.2344 Q357.4063,784.2344 356.0781,782.5938 Q354.7656,780.9375 354.7656,777.8125 Q354.7656,774.6875 356.0781,773.0313 Q357.4063,771.375 359.9063,771.375 Q360.6094,771.375 361.25,771.5313 Q361.9063,771.6875 362.4688,771.9844 L362.4688,774.7031 Q361.8438,774.125 361.25,773.8594 Q360.6563,773.5781 360.0313,773.5781 Q358.6875,773.5781 358,774.6563 Q357.3125,775.7188 357.3125,777.8125 Q357.3125,779.9063 358,780.9844 Q358.6875,782.0469 360.0313,782.0469 Q360.6563,782.0469 361.25,781.7813 Q361.8438,781.5 362.4688,780.9219 L362.4688,783.6406 Z " fill="#000000"/><text fill="#000000" font-family="sans-serif" font-size="14" lengthAdjust="spacing" textLength="181.4736" x="373.5" y="782.8467">PropertyTypeNotDeclared</text></g><!--class SizeNotConfigured__class--><g id="elem_SizeNotConfigured__class"><rect codeLine="39" fill="#F1F1F1" height="32" id="SizeNotConfigured__class" rx="2.5" ry="2.5" style="stroke:#181818;stroke-width:0.5;" width="162.3135" x="370" y="695"/><ellipse cx="385" cy="711" fill="#ADD1B2" rx="11" ry="11" style="stroke:#181818;stroke-width:1;"/><path d="M387.9688,716.6406 Q387.3906,716.9375 386.75,717.0781 Q386.1094,717.2344 385.4063,717.2344 Q382.9063,717.2344 381.5781,715.5938 Q380.2656,713.9375 380.2656,710.8125 Q380.2656,707.6875 381.5781,706.0313 Q382.9063,704.375 385.4063,704.375 Q386.1094,704.375 386.75,704.5313 Q387.4063,704.6875 387.9688,704.9844 L387.9688,707.7031 Q387.3438,707.125 386.75,706.8594 Q386.1563,706.5781 385.5313,706.5781 Q384.1875,706.5781 383.5,707.6563 Q382.8125,708.7188 382.8125,710.8125 Q382.8125,712.9063 383.5,713.9844 Q384.1875,715.0469 385.5313,715.0469 Q386.1563,715.0469 386.75,714.7813 Q387.3438,714.5 387.9688,713.9219 L387.9688,716.6406 Z " fill="#000000"/><text fill="#000000" font-family="sans-serif" font-size="14" lengthAdjust="spacing" textLength="130.3135" x="399" y="715.8467">SizeNotConfigured</text></g><!--class ColumnConfig__enum--><g id="elem_ColumnConfig__enum"><rect codeLine="43" fill="#F1F1F1" height="32" id="ColumnConfig__enum" rx="2.5" ry="2.5" style="stroke:#181818;stroke-width:0.5;" width="130.5332" x="385.5" y="628"/><ellipse cx="400.5" cy="644" fill="#EB937F" rx="11" ry="11" style="stroke:#181818;stroke-width:1;"/><path d="M404.6094,650 L396.8906,650 L396.8906,637.6094 L404.6094,637.6094 L404.6094,639.7656 L399.3438,639.7656 L399.3438,642.4375 L404.1094,642.4375 L404.1094,644.5938 L399.3438,644.5938 L399.3438,647.8438 L404.6094,647.8438 L404.6094,650 Z " fill="#000000"/><text fill="#000000" font-family="sans-serif" font-size="14" lengthAdjust="spacing" textLength="98.5332" x="414.5" y="648.8467">ColumnConfig</text></g><!--class Formats__enum--><g id="elem_Formats__enum"><rect codeLine="47" fill="#F1F1F1" height="32" id="Formats__enum" rx="2.5" ry="2.5" style="stroke:#181818;stroke-width:0.5;" width="89.374" x="750" y="695"/><ellipse cx="765" cy="711" fill="#EB937F" rx="11" ry="11" style="stroke:#181818;stroke-width:1;"/><path d="M769.1094,717 L761.3906,717 L761.3906,704.6094 L769.1094,704.6094 L769.1094,706.7656 L763.8438,706.7656 L763.8438,709.4375 L768.6094,709.4375 L768.6094,711.5938 L763.8438,711.5938 L763.8438,714.8438 L769.1094,714.8438 L769.1094,717 Z " fill="#000000"/><text fill="#000000" font-family="sans-serif" font-size="14" lengthAdjust="spacing" textLength="57.374" x="779" y="715.8467">Formats</text></g><!--class LabelFormatConfig__enum--><g id="elem_LabelFormatConfig__enum"><rect codeLine="51" fill="#F1F1F1" height="32" id="LabelFormatConfig__enum" rx="2.5" ry="2.5" style="stroke:#181818;stroke-width:0.5;" width="164.7676" x="712" y="628"/><ellipse cx="727" cy="644" fill="#EB937F" rx="11" ry="11" style="stroke:#181818;stroke-width:1;"/><path d="M731.1094,650 L723.3906,650 L723.3906,637.6094 L731.1094,637.6094 L731.1094,639.7656 L725.8438,639.7656 L725.8438,642.4375 L730.6094,642.4375 L730.6094,644.5938 L725.8438,644.5938 L725.8438,647.8438 L731.1094,647.8438 L731.1094,650 Z " fill="#000000"/><text fill="#000000" font-family="sans-serif" font-size="14" lengthAdjust="spacing" textLength="132.7676" x="741" y="648.8467">LabelFormatConfig</text></g><!--class InvalidInputTypeCastToStringException__class--><g id="elem_InvalidInputTypeCastToStringException__class"><rect codeLine="57" fill="#F1F1F1" height="32" id="InvalidInputTypeCastToStringException__class" rx="2.5" ry="2.5" style="stroke:#181818;stroke-width:0.5;" width="308.3018" x="297" y="170"/><ellipse cx="312" cy="186" fill="#ADD1B2" rx="11" ry="11" style="stroke:#181818;stroke-width:1;"/><path d="M314.9688,191.6406 Q314.3906,191.9375 313.75,192.0781 Q313.1094,192.2344 312.4063,192.2344 Q309.9063,192.2344 308.5781,190.5938 Q307.2656,188.9375 307.2656,185.8125 Q307.2656,182.6875 308.5781,181.0313 Q309.9063,179.375 312.4063,179.375 Q313.1094,179.375 313.75,179.5313 Q314.4063,179.6875 314.9688,179.9844 L314.9688,182.7031 Q314.3438,182.125 313.75,181.8594 Q313.1563,181.5781 312.5313,181.5781 Q311.1875,181.5781 310.5,182.6563 Q309.8125,183.7188 309.8125,185.8125 Q309.8125,187.9063 310.5,188.9844 Q311.1875,190.0469 312.5313,190.0469 Q313.1563,190.0469 313.75,189.7813 Q314.3438,189.5 314.9688,188.9219 L314.9688,191.6406 Z " fill="#000000"/><text fill="#000000" font-family="sans-serif" font-size="14" lengthAdjust="spacing" textLength="276.3018" x="326" y="190.8467">InvalidInputTypeCastToStringException</text></g><!--class RouteNotRegistered__class--><g id="elem_RouteNotRegistered__class"><rect codeLine="61" fill="#F1F1F1" height="32" id="RouteNotRegistered__class" rx="2.5" ry="2.5" style="stroke:#181818;stroke-width:0.5;" width="173.5654" x="364" y="344"/><ellipse cx="379" cy="360" fill="#ADD1B2" rx="11" ry="11" style="stroke:#181818;stroke-width:1;"/><path d="M381.9688,365.6406 Q381.3906,365.9375 380.75,366.0781 Q380.1094,366.2344 379.4063,366.2344 Q376.9063,366.2344 375.5781,364.5938 Q374.2656,362.9375 374.2656,359.8125 Q374.2656,356.6875 375.5781,355.0313 Q376.9063,353.375 379.4063,353.375 Q380.1094,353.375 380.75,353.5313 Q381.4063,353.6875 381.9688,353.9844 L381.9688,356.7031 Q381.3438,356.125 380.75,355.8594 Q380.1563,355.5781 379.5313,355.5781 Q378.1875,355.5781 377.5,356.6563 Q376.8125,357.7188 376.8125,359.8125 Q376.8125,361.9063 377.5,362.9844 Q378.1875,364.0469 379.5313,364.0469 Q380.1563,364.0469 380.75,363.7813 Q381.3438,363.5 381.9688,362.9219 L381.9688,365.6406 Z " fill="#000000"/><text fill="#000000" font-family="sans-serif" font-size="14" lengthAdjust="spacing" textLength="141.5654" x="393" y="364.8467">RouteNotRegistered</text></g><!--class RouteParamMap__class--><g id="elem_RouteParamMap__class"><rect codeLine="65" fill="#F1F1F1" height="32" id="RouteParamMap__class" rx="2.5" ry="2.5" style="stroke:#181818;stroke-width:0.5;" width="147.8076" x="377" y="277"/><ellipse cx="392" cy="293" fill="#ADD1B2" rx="11" ry="11" style="stroke:#181818;stroke-width:1;"/><path d="M394.9688,298.6406 Q394.3906,298.9375 393.75,299.0781 Q393.1094,299.2344 392.4063,299.2344 Q389.9063,299.2344 388.5781,297.5938 Q387.2656,295.9375 387.2656,292.8125 Q387.2656,289.6875 388.5781,288.0313 Q389.9063,286.375 392.4063,286.375 Q393.1094,286.375 393.75,286.5313 Q394.4063,286.6875 394.9688,286.9844 L394.9688,289.7031 Q394.3438,289.125 393.75,288.8594 Q393.1563,288.5781 392.5313,288.5781 Q391.1875,288.5781 390.5,289.6563 Q389.8125,290.7188 389.8125,292.8125 Q389.8125,294.9063 390.5,295.9844 Q391.1875,297.0469 392.5313,297.0469 Q393.1563,297.0469 393.75,296.7813 Q394.3438,296.5 394.9688,295.9219 L394.9688,298.6406 Z " fill="#000000"/><text fill="#000000" font-family="sans-serif" font-size="14" lengthAdjust="spacing" textLength="115.8076" x="406" y="297.8467">RouteParamMap</text></g><!--class RouteParamNotExists__class--><g id="elem_RouteParamNotExists__class"><rect codeLine="69" fill="#F1F1F1" height="32" id="RouteParamNotExists__class" rx="2.5" ry="2.5" style="stroke:#181818;stroke-width:0.5;" width="183.8877" x="702.5" y="344"/><ellipse cx="717.5" cy="360" fill="#ADD1B2" rx="11" ry="11" style="stroke:#181818;stroke-width:1;"/><path d="M720.4688,365.6406 Q719.8906,365.9375 719.25,366.0781 Q718.6094,366.2344 717.9063,366.2344 Q715.4063,366.2344 714.0781,364.5938 Q712.7656,362.9375 712.7656,359.8125 Q712.7656,356.6875 714.0781,355.0313 Q715.4063,353.375 717.9063,353.375 Q718.6094,353.375 719.25,353.5313 Q719.9063,353.6875 720.4688,353.9844 L720.4688,356.7031 Q719.8438,356.125 719.25,355.8594 Q718.6563,355.5781 718.0313,355.5781 Q716.6875,355.5781 716,356.6563 Q715.3125,357.7188 715.3125,359.8125 Q715.3125,361.9063 716,362.9844 Q716.6875,364.0469 718.0313,364.0469 Q718.6563,364.0469 719.25,363.7813 Q719.8438,363.5 720.4688,362.9219 L720.4688,365.6406 Z " fill="#000000"/><text fill="#000000" font-family="sans-serif" font-size="14" lengthAdjust="spacing" textLength="151.8877" x="731.5" y="364.8467">RouteParamNotExists</text></g><!--class DefaultErrorMessages__enum--><g id="elem_DefaultErrorMessages__enum"><rect codeLine="73" fill="#F1F1F1" height="32" id="DefaultErrorMessages__enum" rx="2.5" ry="2.5" style="stroke:#181818;stroke-width:0.5;" width="186.4854" x="358" y="561"/><ellipse cx="373" cy="577" fill="#EB937F" rx="11" ry="11" style="stroke:#181818;stroke-width:1;"/><path d="M377.1094,583 L369.3906,583 L369.3906,570.6094 L377.1094,570.6094 L377.1094,572.7656 L371.8438,572.7656 L371.8438,575.4375 L376.6094,575.4375 L376.6094,577.5938 L371.8438,577.5938 L371.8438,580.8438 L377.1094,580.8438 L377.1094,583 Z " fill="#000000"/><text fill="#000000" font-family="sans-serif" font-size="14" lengthAdjust="spacing" textLength="154.4854" x="387" y="581.8467">DefaultErrorMessages</text></g><!--class ValidatorWithNoErrorMessageException__class--><g id="elem_ValidatorWithNoErrorMessageException__class"><rect codeLine="77" fill="#F1F1F1" height="32" id="ValidatorWithNoErrorMessageException__class" rx="2.5" ry="2.5" style="stroke:#181818;stroke-width:0.5;" width="311.5283" x="295" y="494"/><ellipse cx="310" cy="510" fill="#ADD1B2" rx="11" ry="11" style="stroke:#181818;stroke-width:1;"/><path d="M312.9688,515.6406 Q312.3906,515.9375 311.75,516.0781 Q311.1094,516.2344 310.4063,516.2344 Q307.9063,516.2344 306.5781,514.5938 Q305.2656,512.9375 305.2656,509.8125 Q305.2656,506.6875 306.5781,505.0313 Q307.9063,503.375 310.4063,503.375 Q311.1094,503.375 311.75,503.5313 Q312.4063,503.6875 312.9688,503.9844 L312.9688,506.7031 Q312.3438,506.125 311.75,505.8594 Q311.1563,505.5781 310.5313,505.5781 Q309.1875,505.5781 308.5,506.6563 Q307.8125,507.7188 307.8125,509.8125 Q307.8125,511.9063 308.5,512.9844 Q309.1875,514.0469 310.5313,514.0469 Q311.1563,514.0469 311.75,513.7813 Q312.3438,513.5 312.9688,512.9219 L312.9688,515.6406 Z " fill="#000000"/><text fill="#000000" font-family="sans-serif" font-size="14" lengthAdjust="spacing" textLength="279.5283" x="324" y="514.8467">ValidatorWithNoErrorMessageException</text></g><!--class RuntimeException__class--><g id="elem_RuntimeException__class"><rect codeLine="54" fill="#F1F1F1" height="40.2656" id="RuntimeException__class" rx="2.5" ry="2.5" style="stroke:#181818;stroke-width:0.5;" width="160.249" x="7" y="328"/><ellipse cx="22" cy="348.1328" fill="#ADD1B2" rx="11" ry="11" style="stroke:#181818;stroke-width:1;"/><path d="M24.9688,353.7734 Q24.3906,354.0703 23.75,354.2109 Q23.1094,354.3672 22.4063,354.3672 Q19.9063,354.3672 18.5781,352.7266 Q17.2656,351.0703 17.2656,347.9453 Q17.2656,344.8203 18.5781,343.1641 Q19.9063,341.5078 22.4063,341.5078 Q23.1094,341.5078 23.75,341.6641 Q24.4063,341.8203 24.9688,342.1172 L24.9688,344.8359 Q24.3438,344.2578 23.75,343.9922 Q23.1563,343.7109 22.5313,343.7109 Q21.1875,343.7109 20.5,344.7891 Q19.8125,345.8516 19.8125,347.9453 Q19.8125,350.0391 20.5,351.1172 Q21.1875,352.1797 22.5313,352.1797 Q23.1563,352.1797 23.75,351.9141 Q24.3438,351.6328 24.9688,351.0547 L24.9688,353.7734 Z " fill="#000000"/><text fill="#000000" font-family="sans-serif" font-size="12" font-style="italic" lengthAdjust="spacing" textLength="64.4824" x="67.8833" y="344.1387">&#171;external&#187;</text><text fill="#000000" font-family="sans-serif" font-size="14" lengthAdjust="spacing" textLength="128.249" x="36" y="359.9639">RuntimeException</text></g><!--reverse link PropertyValueSetterInterface__interface to AbstractPropertyValueExtractor__class--><g id="link_PropertyValueSetterInterface__interface_AbstractPropertyValueExtractor__class"><path d="M587.69,912 C619.01,912 634.94,912 666.72,912 " fill="none" id="PropertyValueSetterInterface__interface-backto-AbstractPropertyValueExtractor__class" style="stroke:#516F42;stroke-width:1;stroke-dasharray:7.0,7.0;"/><polygon fill="none" points="569.69,912,587.69,918,587.69,906,569.69,912" style="stroke:#516F42;stroke-width:1;"/></g><!--reverse link AbstractPropertyNameExtractor__class to DefaultColumnName__class--><g id="link_AbstractPropertyNameExtractor__class_DefaultColumnName__class"><path d="M597.4,845 C639.32,845 666.93,845 705.32,845 " fill="none" id="AbstractPropertyNameExtractor__class-backto-DefaultColumnName__class" style="stroke:#516F42;stroke-width:1;"/><polygon fill="none" points="579.4,845,597.4,851,597.4,839,579.4,845" style="stroke:#516F42;stroke-width:1;"/></g><!--reverse link AbstractPropertyNameExtractor__class to DefaultLabelFormat__class--><g id="link_AbstractPropertyNameExtractor__class_DefaultLabelFormat__class"><path d="M569,810.78 C569,790.95 569,778 569,778 C569,778 645.13,778 708.93,778 " fill="none" id="AbstractPropertyNameExtractor__class-backto-DefaultLabelFormat__class" style="stroke:#516F42;stroke-width:1;"/><polygon fill="none" points="569,828.78,575,810.78,563,810.78,569,828.78" style="stroke:#516F42;stroke-width:1;"/></g><!--reverse link RuntimeException__class to InvalidInputTypeCastToStringException__class--><g id="link_RuntimeException__class_InvalidInputTypeCastToStringException__class"><path d="M185.33,336 C260.08,336 342,336 342,336 C342,336 342,240.75 342,202.05 " fill="none" id="RuntimeException__class-backto-InvalidInputTypeCastToStringException__class" style="stroke:#516F42;stroke-width:1;"/><polygon fill="none" points="167.33,336,185.33,342,185.33,330,167.33,336" style="stroke:#516F42;stroke-width:1;"/></g><!--reverse link RuntimeException__class to ValidatorWithNoErrorMessageException__class--><g id="link_RuntimeException__class_ValidatorWithNoErrorMessageException__class"><path d="M185.19,356 C252.58,356 320,356 320,356 C320,356 320,454.27 320,493.81 " fill="none" id="RuntimeException__class-backto-ValidatorWithNoErrorMessageException__class" style="stroke:#516F42;stroke-width:1;"/><polygon fill="none" points="167.19,356,185.19,362,185.19,350,167.19,356" style="stroke:#516F42;stroke-width:1;"/></g><!--SRC=[pLRHRjf047ptLwpe5xHg-nH5IWcHa1g4GfI-MB8ElBPFiU-ilNK2ZVBllJCsd25G0wfKFvdPPMRsRius09XdgKf1ee0R8lqwrBac-FJjy_VawvS0_BfOi7oHlFgXAKRgqoWMpodfIiLDSr9V7pVVIb5e5VScR_lxQ9XCnFfLgXGIaHiCWiEbRIMN2dbL8cZYJ0UPZ16mA7a51HPp91Fac32m1f9fnX1BGkjDgy0WWn85cb8iS8QEZgsrC0o23GpJhDIve33St0mr8Rmvvo3cXibE2h38XJ4mk6c0AUaIYLSJopDQrf2c0GW3HpkYQCrZhxN0U_3UrujKZ9Iuja7B_IJooWx6jZ1kgxM9OmrHj6KwtSLVLwIMFBuatHPlJMHHvbYWOWEUUiU6_TbpjfD7QoUwnKHKETiSLuLosrSFiOTkVUEIKSN7FFSBnQMEVuevvdUQ2i6-PG_-Zpotj8_sQ4yqtwB52UDEV7TgbvoULdOcVplAeLQ9JAjMS0-zH0fLLS1W7PGrOwtX0r5KDvr9lTvBKxCszvSHUWdn3E-XUoBDcZvKYgKBnm9Bz-2j_xqBjYjwTLLdZvJ8uVhwhOVLCDoGx6pcMBs8NCPZLLRiiZ8KXX_rZCc-HxfkUdL-T3eEZN72KbiINR5xjNNTEzIbxW5JQUoAD5dSXyyAur7LgNkptejoAzWY_qZBpZDQsd7CZk86FrFtoUsgyAAn3dJpv1lPBocwHsD4YiP_97OA9vyTN_PmE9iUJRyaPnFjItQpsQVnp6Z-0G00]--></g></svg>