<?xml version="1.0" encoding="UTF-8" standalone="no"?><svg xmlns="http://www.w3.org/2000/svg" xmlns:xlink="http://www.w3.org/1999/xlink" contentScriptType="application/ecmascript" contentStyleType="text/css" height="708px" preserveAspectRatio="none" style="width:683px;height:708px;" version="1.1" viewBox="0 0 683 708" width="683px" zoomAndPan="magnify"><defs/><g><!--MD5=[6e42f78f80b986da6d510e1738ea0ecf]
cluster Phpolar\\Phpolar\\Core--><polygon fill="#FFFFFF" points="22,412,196,412,203,434.2969,618,434.2969,618,696,22,696,22,412" style="stroke: #000000; stroke-width: 1.5;"/><line style="stroke: #000000; stroke-width: 1.5;" x1="22" x2="203" y1="434.2969" y2="434.2969"/><text fill="#000000" font-family="sans-serif" font-size="14" font-weight="bold" lengthAdjust="spacingAndGlyphs" textLength="168" x="26" y="426.9951">Phpolar\Phpolar\Core</text><!--MD5=[5373439acb972b810ded654aa2e9f4b9]
cluster Phpolar\\Phpolar\\Core\\Exception--><polygon fill="#FFFFFF" points="334.5,24,590.5,24,597.5,46.2969,639.5,46.2969,639.5,107,334.5,107,334.5,24" style="stroke: #000000; stroke-width: 1.5;"/><line style="stroke: #000000; stroke-width: 1.5;" x1="334.5" x2="597.5" y1="46.2969" y2="46.2969"/><text fill="#000000" font-family="sans-serif" font-size="14" font-weight="bold" lengthAdjust="spacingAndGlyphs" textLength="250" x="338.5" y="38.9951">Phpolar\Phpolar\Core\Exception</text><!--MD5=[182e9384ee2c089c46f016c8feb2d4f9]
cluster Phpolar\\Phpolar\\Core\\Routing--><polygon fill="#FFFFFF" points="58,238,297,238,304,260.2969,586.5,260.2969,586.5,388,58,388,58,238" style="stroke: #000000; stroke-width: 1.5;"/><line style="stroke: #000000; stroke-width: 1.5;" x1="58" x2="304" y1="260.2969" y2="260.2969"/><text fill="#000000" font-family="sans-serif" font-size="14" font-weight="bold" lengthAdjust="spacingAndGlyphs" textLength="233" x="62" y="252.9951">Phpolar\Phpolar\Core\Routing</text><!--MD5=[eeffe423de2d0aa9e623c1f457498603]
cluster Phpolar\\Phpolar\\Core\\Validation\\Exception--><polygon fill="#FFFFFF" points="313,131,651,131,658,153.2969,661,153.2969,661,214,313,214,313,131" style="stroke: #000000; stroke-width: 1.5;"/><line style="stroke: #000000; stroke-width: 1.5;" x1="313" x2="658" y1="153.2969" y2="153.2969"/><text fill="#000000" font-family="sans-serif" font-size="14" font-weight="bold" lengthAdjust="spacingAndGlyphs" textLength="332" x="317" y="145.9951">Phpolar\Phpolar\Core\Validation\Exception</text><!--MD5=[9b5c087fb1b9df3d5b02adf17a4b5856]
class Phpolar\\Phpolar\\Core\\AbstractPropertyNameExtractor--><rect fill="#FEFECE" height="32" id="Phpolar\\Phpolar\\Core\\AbstractPropertyNameExtractor" style="stroke: #A80036; stroke-width: 1.5;" width="231" x="38" y="581"/><ellipse cx="53" cy="597" fill="#A9DCDF" rx="11" ry="11" style="stroke: #A80036; stroke-width: 1.0;"/><path d="M53.1094,592.3438 L51.9531,597.4219 L54.2813,597.4219 L53.1094,592.3438 Z M51.625,590.1094 L54.6094,590.1094 L57.9688,602.5 L55.5156,602.5 L54.75,599.4375 L51.4688,599.4375 L50.7188,602.5 L48.2813,602.5 L51.625,590.1094 Z "/><text fill="#000000" font-family="sans-serif" font-size="12" font-style="italic" lengthAdjust="spacingAndGlyphs" textLength="199" x="67" y="601.1543">AbstractPropertyNameExtractor</text><!--MD5=[01ac4a6e3e82d07a6ffb02255465f1b9]
class Phpolar\\Phpolar\\Core\\AbstractPropertyValueExtractor--><rect fill="#FEFECE" height="32" id="Phpolar\\Phpolar\\Core\\AbstractPropertyValueExtractor" style="stroke: #A80036; stroke-width: 1.5;" width="230" x="372" y="648"/><ellipse cx="387" cy="664" fill="#A9DCDF" rx="11" ry="11" style="stroke: #A80036; stroke-width: 1.0;"/><path d="M387.1094,659.3438 L385.9531,664.4219 L388.2813,664.4219 L387.1094,659.3438 Z M385.625,657.1094 L388.6094,657.1094 L391.9688,669.5 L389.5156,669.5 L388.75,666.4375 L385.4688,666.4375 L384.7188,669.5 L382.2813,669.5 L385.625,657.1094 Z "/><text fill="#000000" font-family="sans-serif" font-size="12" font-style="italic" lengthAdjust="spacingAndGlyphs" textLength="198" x="401" y="668.1543">AbstractPropertyValueExtractor</text><!--MD5=[2a5f8359d1c9a3aeede0119cebcf73d1]
class Phpolar\\Phpolar\\Core\\PropertyValueSetterInterface--><rect fill="#FEFECE" height="32" id="Phpolar\\Phpolar\\Core\\PropertyValueSetterInterface" style="stroke: #A80036; stroke-width: 1.5;" width="216" x="45.5" y="648"/><ellipse cx="60.5" cy="664" fill="#B4A7E5" rx="11" ry="11" style="stroke: #A80036; stroke-width: 1.0;"/><path d="M56.4219,659.7656 L56.4219,657.6094 L63.8125,657.6094 L63.8125,659.7656 L61.3438,659.7656 L61.3438,667.8438 L63.8125,667.8438 L63.8125,670 L56.4219,670 L56.4219,667.8438 L58.8906,667.8438 L58.8906,659.7656 L56.4219,659.7656 Z "/><text fill="#000000" font-family="sans-serif" font-size="12" font-style="italic" lengthAdjust="spacingAndGlyphs" textLength="184" x="74.5" y="668.1543">PropertyValueSetterInterface</text><!--MD5=[cb6bf416eda1a07649dde158538523c1]
class Phpolar\\Phpolar\\Core\\ContainerLoader--><rect fill="#FEFECE" height="32" id="Phpolar\\Phpolar\\Core\\ContainerLoader" style="stroke: #A80036; stroke-width: 1.5;" width="136" x="85.5" y="514"/><ellipse cx="100.5" cy="530" fill="#ADD1B2" rx="11" ry="11" style="stroke: #A80036; stroke-width: 1.0;"/><path d="M103.4688,535.6406 Q102.8906,535.9375 102.25,536.0781 Q101.6094,536.2344 100.9063,536.2344 Q98.4063,536.2344 97.0781,534.5938 Q95.7656,532.9375 95.7656,529.8125 Q95.7656,526.6875 97.0781,525.0313 Q98.4063,523.375 100.9063,523.375 Q101.6094,523.375 102.25,523.5313 Q102.9063,523.6875 103.4688,523.9844 L103.4688,526.7031 Q102.8438,526.125 102.25,525.8594 Q101.6563,525.5781 101.0313,525.5781 Q99.6875,525.5781 99,526.6563 Q98.3125,527.7188 98.3125,529.8125 Q98.3125,531.9063 99,532.9844 Q99.6875,534.0469 101.0313,534.0469 Q101.6563,534.0469 102.25,533.7813 Q102.8438,533.5 103.4688,532.9219 L103.4688,535.6406 Z "/><text fill="#000000" font-family="sans-serif" font-size="12" lengthAdjust="spacingAndGlyphs" textLength="104" x="114.5" y="534.1543">ContainerLoader</text><!--MD5=[bb7affcc6fd38462f395b0361b7e6f0b]
class Phpolar\\Phpolar\\Core\\DefaultColumnName--><rect fill="#FEFECE" height="32" id="Phpolar\\Phpolar\\Core\\DefaultColumnName" style="stroke: #A80036; stroke-width: 1.5;" width="159" x="407.5" y="581"/><ellipse cx="422.5" cy="597" fill="#ADD1B2" rx="11" ry="11" style="stroke: #A80036; stroke-width: 1.0;"/><path d="M425.4688,602.6406 Q424.8906,602.9375 424.25,603.0781 Q423.6094,603.2344 422.9063,603.2344 Q420.4063,603.2344 419.0781,601.5938 Q417.7656,599.9375 417.7656,596.8125 Q417.7656,593.6875 419.0781,592.0313 Q420.4063,590.375 422.9063,590.375 Q423.6094,590.375 424.25,590.5313 Q424.9063,590.6875 425.4688,590.9844 L425.4688,593.7031 Q424.8438,593.125 424.25,592.8594 Q423.6563,592.5781 423.0313,592.5781 Q421.6875,592.5781 421,593.6563 Q420.3125,594.7188 420.3125,596.8125 Q420.3125,598.9063 421,599.9844 Q421.6875,601.0469 423.0313,601.0469 Q423.6563,601.0469 424.25,600.7813 Q424.8438,600.5 425.4688,599.9219 L425.4688,602.6406 Z "/><text fill="#000000" font-family="sans-serif" font-size="12" lengthAdjust="spacingAndGlyphs" textLength="127" x="436.5" y="601.1543">DefaultColumnName</text><!--MD5=[bbc58e7a6434a9c0234912820a3191b5]
class Phpolar\\Phpolar\\Core\\DefaultLabelFormat--><rect fill="#FEFECE" height="32" id="Phpolar\\Phpolar\\Core\\DefaultLabelFormat" style="stroke: #A80036; stroke-width: 1.5;" width="154" x="410" y="514"/><ellipse cx="425" cy="530" fill="#ADD1B2" rx="11" ry="11" style="stroke: #A80036; stroke-width: 1.0;"/><path d="M427.9688,535.6406 Q427.3906,535.9375 426.75,536.0781 Q426.1094,536.2344 425.4063,536.2344 Q422.9063,536.2344 421.5781,534.5938 Q420.2656,532.9375 420.2656,529.8125 Q420.2656,526.6875 421.5781,525.0313 Q422.9063,523.375 425.4063,523.375 Q426.1094,523.375 426.75,523.5313 Q427.4063,523.6875 427.9688,523.9844 L427.9688,526.7031 Q427.3438,526.125 426.75,525.8594 Q426.1563,525.5781 425.5313,525.5781 Q424.1875,525.5781 423.5,526.6563 Q422.8125,527.7188 422.8125,529.8125 Q422.8125,531.9063 423.5,532.9844 Q424.1875,534.0469 425.5313,534.0469 Q426.1563,534.0469 426.75,533.7813 Q427.3438,533.5 427.9688,532.9219 L427.9688,535.6406 Z "/><text fill="#000000" font-family="sans-serif" font-size="12" lengthAdjust="spacingAndGlyphs" textLength="122" x="439" y="534.1543">DefaultLabelFormat</text><!--MD5=[beed2385eccd961a29d10e05fa30abc6]
class Phpolar\\Phpolar\\Core\\PropertyTypeNotDeclared--><rect fill="#FEFECE" height="32" id="Phpolar\\Phpolar\\Core\\PropertyTypeNotDeclared" style="stroke: #A80036; stroke-width: 1.5;" width="192" x="57.5" y="447"/><ellipse cx="72.5" cy="463" fill="#ADD1B2" rx="11" ry="11" style="stroke: #A80036; stroke-width: 1.0;"/><path d="M75.4688,468.6406 Q74.8906,468.9375 74.25,469.0781 Q73.6094,469.2344 72.9063,469.2344 Q70.4063,469.2344 69.0781,467.5938 Q67.7656,465.9375 67.7656,462.8125 Q67.7656,459.6875 69.0781,458.0313 Q70.4063,456.375 72.9063,456.375 Q73.6094,456.375 74.25,456.5313 Q74.9063,456.6875 75.4688,456.9844 L75.4688,459.7031 Q74.8438,459.125 74.25,458.8594 Q73.6563,458.5781 73.0313,458.5781 Q71.6875,458.5781 71,459.6563 Q70.3125,460.7188 70.3125,462.8125 Q70.3125,464.9063 71,465.9844 Q71.6875,467.0469 73.0313,467.0469 Q73.6563,467.0469 74.25,466.7813 Q74.8438,466.5 75.4688,465.9219 L75.4688,468.6406 Z "/><text fill="#000000" font-family="sans-serif" font-size="12" lengthAdjust="spacingAndGlyphs" textLength="160" x="86.5" y="467.1543">PropertyTypeNotDeclared</text><!--MD5=[4688c3d85f768f09306f442b139146da]
class Phpolar\\Phpolar\\Core\\SizeNotConfigured--><rect fill="#FEFECE" height="32" id="Phpolar\\Phpolar\\Core\\SizeNotConfigured" style="stroke: #A80036; stroke-width: 1.5;" width="146" x="414" y="447"/><ellipse cx="429" cy="463" fill="#ADD1B2" rx="11" ry="11" style="stroke: #A80036; stroke-width: 1.0;"/><path d="M431.9688,468.6406 Q431.3906,468.9375 430.75,469.0781 Q430.1094,469.2344 429.4063,469.2344 Q426.9063,469.2344 425.5781,467.5938 Q424.2656,465.9375 424.2656,462.8125 Q424.2656,459.6875 425.5781,458.0313 Q426.9063,456.375 429.4063,456.375 Q430.1094,456.375 430.75,456.5313 Q431.4063,456.6875 431.9688,456.9844 L431.9688,459.7031 Q431.3438,459.125 430.75,458.8594 Q430.1563,458.5781 429.5313,458.5781 Q428.1875,458.5781 427.5,459.6563 Q426.8125,460.7188 426.8125,462.8125 Q426.8125,464.9063 427.5,465.9844 Q428.1875,467.0469 429.5313,467.0469 Q430.1563,467.0469 430.75,466.7813 Q431.3438,466.5 431.9688,465.9219 L431.9688,468.6406 Z "/><text fill="#000000" font-family="sans-serif" font-size="12" lengthAdjust="spacingAndGlyphs" textLength="114" x="443" y="467.1543">SizeNotConfigured</text><!--MD5=[911145b08a7e52c54aa703f8d31c58de]
class Phpolar\\Phpolar\\Core\\Exception\\InvalidInputTypeCastToStringException--><rect fill="#FEFECE" height="32" id="Phpolar\\Phpolar\\Core\\Exception\\InvalidInputTypeCastToStringException" style="stroke: #A80036; stroke-width: 1.5;" width="273" x="350.5" y="59"/><ellipse cx="365.5" cy="75" fill="#ADD1B2" rx="11" ry="11" style="stroke: #A80036; stroke-width: 1.0;"/><path d="M368.4688,80.6406 Q367.8906,80.9375 367.25,81.0781 Q366.6094,81.2344 365.9063,81.2344 Q363.4063,81.2344 362.0781,79.5938 Q360.7656,77.9375 360.7656,74.8125 Q360.7656,71.6875 362.0781,70.0313 Q363.4063,68.375 365.9063,68.375 Q366.6094,68.375 367.25,68.5313 Q367.9063,68.6875 368.4688,68.9844 L368.4688,71.7031 Q367.8438,71.125 367.25,70.8594 Q366.6563,70.5781 366.0313,70.5781 Q364.6875,70.5781 364,71.6563 Q363.3125,72.7188 363.3125,74.8125 Q363.3125,76.9063 364,77.9844 Q364.6875,79.0469 366.0313,79.0469 Q366.6563,79.0469 367.25,78.7813 Q367.8438,78.5 368.4688,77.9219 L368.4688,80.6406 Z "/><text fill="#000000" font-family="sans-serif" font-size="12" lengthAdjust="spacingAndGlyphs" textLength="241" x="379.5" y="79.1543">InvalidInputTypeCastToStringException</text><!--MD5=[3271eb651eb3aa23410ec661c08ace0a]
class Phpolar\\Phpolar\\Core\\Routing\\RouteNotRegistered--><rect fill="#FEFECE" height="32" id="Phpolar\\Phpolar\\Core\\Routing\\RouteNotRegistered" style="stroke: #A80036; stroke-width: 1.5;" width="159" x="74" y="340"/><ellipse cx="89" cy="356" fill="#ADD1B2" rx="11" ry="11" style="stroke: #A80036; stroke-width: 1.0;"/><path d="M91.9688,361.6406 Q91.3906,361.9375 90.75,362.0781 Q90.1094,362.2344 89.4063,362.2344 Q86.9063,362.2344 85.5781,360.5938 Q84.2656,358.9375 84.2656,355.8125 Q84.2656,352.6875 85.5781,351.0313 Q86.9063,349.375 89.4063,349.375 Q90.1094,349.375 90.75,349.5313 Q91.4063,349.6875 91.9688,349.9844 L91.9688,352.7031 Q91.3438,352.125 90.75,351.8594 Q90.1563,351.5781 89.5313,351.5781 Q88.1875,351.5781 87.5,352.6563 Q86.8125,353.7188 86.8125,355.8125 Q86.8125,357.9063 87.5,358.9844 Q88.1875,360.0469 89.5313,360.0469 Q90.1563,360.0469 90.75,359.7813 Q91.3438,359.5 91.9688,358.9219 L91.9688,361.6406 Z "/><text fill="#000000" font-family="sans-serif" font-size="12" lengthAdjust="spacingAndGlyphs" textLength="127" x="103" y="360.1543">RouteNotRegistered</text><!--MD5=[6a5cfb412e15a02e4f296dc118373593]
class Phpolar\\Phpolar\\Core\\Routing\\RouteParamMap--><rect fill="#FEFECE" height="32" id="Phpolar\\Phpolar\\Core\\Routing\\RouteParamMap" style="stroke: #A80036; stroke-width: 1.5;" width="135" x="86" y="273"/><ellipse cx="101" cy="289" fill="#ADD1B2" rx="11" ry="11" style="stroke: #A80036; stroke-width: 1.0;"/><path d="M103.9688,294.6406 Q103.3906,294.9375 102.75,295.0781 Q102.1094,295.2344 101.4063,295.2344 Q98.9063,295.2344 97.5781,293.5938 Q96.2656,291.9375 96.2656,288.8125 Q96.2656,285.6875 97.5781,284.0313 Q98.9063,282.375 101.4063,282.375 Q102.1094,282.375 102.75,282.5313 Q103.4063,282.6875 103.9688,282.9844 L103.9688,285.7031 Q103.3438,285.125 102.75,284.8594 Q102.1563,284.5781 101.5313,284.5781 Q100.1875,284.5781 99.5,285.6563 Q98.8125,286.7188 98.8125,288.8125 Q98.8125,290.9063 99.5,291.9844 Q100.1875,293.0469 101.5313,293.0469 Q102.1563,293.0469 102.75,292.7813 Q103.3438,292.5 103.9688,291.9219 L103.9688,294.6406 Z "/><text fill="#000000" font-family="sans-serif" font-size="12" lengthAdjust="spacingAndGlyphs" textLength="103" x="115" y="293.1543">RouteParamMap</text><!--MD5=[c9c87393bdfcaa8453dea65444601070]
class Phpolar\\Phpolar\\Core\\Routing\\RouteParamNotExists--><rect fill="#FEFECE" height="32" id="Phpolar\\Phpolar\\Core\\Routing\\RouteParamNotExists" style="stroke: #A80036; stroke-width: 1.5;" width="167" x="403.5" y="340"/><ellipse cx="418.5" cy="356" fill="#ADD1B2" rx="11" ry="11" style="stroke: #A80036; stroke-width: 1.0;"/><path d="M421.4688,361.6406 Q420.8906,361.9375 420.25,362.0781 Q419.6094,362.2344 418.9063,362.2344 Q416.4063,362.2344 415.0781,360.5938 Q413.7656,358.9375 413.7656,355.8125 Q413.7656,352.6875 415.0781,351.0313 Q416.4063,349.375 418.9063,349.375 Q419.6094,349.375 420.25,349.5313 Q420.9063,349.6875 421.4688,349.9844 L421.4688,352.7031 Q420.8438,352.125 420.25,351.8594 Q419.6563,351.5781 419.0313,351.5781 Q417.6875,351.5781 417,352.6563 Q416.3125,353.7188 416.3125,355.8125 Q416.3125,357.9063 417,358.9844 Q417.6875,360.0469 419.0313,360.0469 Q419.6563,360.0469 420.25,359.7813 Q420.8438,359.5 421.4688,358.9219 L421.4688,361.6406 Z "/><text fill="#000000" font-family="sans-serif" font-size="12" lengthAdjust="spacingAndGlyphs" textLength="135" x="432.5" y="360.1543">RouteParamNotExists</text><!--MD5=[b4e4f33fa9c02cbfe7681ec5751bab8d]
class Phpolar\\Phpolar\\Core\\Validation\\Exception\\ValidatorWithNoErrorMessageException--><rect fill="#FEFECE" height="32" id="Phpolar\\Phpolar\\Core\\Validation\\Exception\\ValidatorWithNoErrorMessageException" style="stroke: #A80036; stroke-width: 1.5;" width="280" x="347" y="166"/><ellipse cx="362" cy="182" fill="#ADD1B2" rx="11" ry="11" style="stroke: #A80036; stroke-width: 1.0;"/><path d="M364.9688,187.6406 Q364.3906,187.9375 363.75,188.0781 Q363.1094,188.2344 362.4063,188.2344 Q359.9063,188.2344 358.5781,186.5938 Q357.2656,184.9375 357.2656,181.8125 Q357.2656,178.6875 358.5781,177.0313 Q359.9063,175.375 362.4063,175.375 Q363.1094,175.375 363.75,175.5313 Q364.4063,175.6875 364.9688,175.9844 L364.9688,178.7031 Q364.3438,178.125 363.75,177.8594 Q363.1563,177.5781 362.5313,177.5781 Q361.1875,177.5781 360.5,178.6563 Q359.8125,179.7188 359.8125,181.8125 Q359.8125,183.9063 360.5,184.9844 Q361.1875,186.0469 362.5313,186.0469 Q363.1563,186.0469 363.75,185.7813 Q364.3438,185.5 364.9688,184.9219 L364.9688,187.6406 Z "/><text fill="#000000" font-family="sans-serif" font-size="12" lengthAdjust="spacingAndGlyphs" textLength="248" x="376" y="186.1543">ValidatorWithNoErrorMessageException</text><!--MD5=[5c6c7d52e42032554528404b62c1d271]
class RuntimeException--><rect fill="#FEFECE" height="32" id="RuntimeException" style="stroke: #A80036; stroke-width: 1.5;" width="144" x="81.5" y="113"/><ellipse cx="96.5" cy="129" fill="#ADD1B2" rx="11" ry="11" style="stroke: #A80036; stroke-width: 1.0;"/><path d="M99.4688,134.6406 Q98.8906,134.9375 98.25,135.0781 Q97.6094,135.2344 96.9063,135.2344 Q94.4063,135.2344 93.0781,133.5938 Q91.7656,131.9375 91.7656,128.8125 Q91.7656,125.6875 93.0781,124.0313 Q94.4063,122.375 96.9063,122.375 Q97.6094,122.375 98.25,122.5313 Q98.9063,122.6875 99.4688,122.9844 L99.4688,125.7031 Q98.8438,125.125 98.25,124.8594 Q97.6563,124.5781 97.0313,124.5781 Q95.6875,124.5781 95,125.6563 Q94.3125,126.7188 94.3125,128.8125 Q94.3125,130.9063 95,131.9844 Q95.6875,133.0469 97.0313,133.0469 Q97.6563,133.0469 98.25,132.7813 Q98.8438,132.5 99.4688,131.9219 L99.4688,134.6406 Z "/><text fill="#000000" font-family="sans-serif" font-size="12" lengthAdjust="spacingAndGlyphs" textLength="112" x="110.5" y="133.1543">RuntimeException</text><!--MD5=[4bfb2bdfd0851e92429cdbaf1bf734f3]
reverse link Phpolar\\Phpolar\\Core\\PropertyValueSetterInterface to Phpolar\\Phpolar\\Core\\AbstractPropertyValueExtractor--><path d="M281.78,664 C281.78,664 371.8,664 371.8,664 " fill="none" id="Phpolar\\Phpolar\\Core\\PropertyValueSetterInterface&lt;-Phpolar\\Phpolar\\Core\\AbstractPropertyValueExtractor" style="stroke: #516F42; stroke-width: 1.0; stroke-dasharray: 7.0,7.0;"/><polygon fill="none" points="281.78,671,261.78,664,281.78,657,281.78,671" style="stroke: #516F42; stroke-width: 1.0;"/><!--MD5=[e34938d5faa0195025519e91b108da0a]
reverse link Phpolar\\Phpolar\\Core\\AbstractPropertyNameExtractor to Phpolar\\Phpolar\\Core\\DefaultColumnName--><path d="M289.21,597 C289.21,597 407.42,597 407.42,597 " fill="none" id="Phpolar\\Phpolar\\Core\\AbstractPropertyNameExtractor&lt;-Phpolar\\Phpolar\\Core\\DefaultColumnName" style="stroke: #516F42; stroke-width: 1.0;"/><polygon fill="none" points="289.21,604,269.21,597,289.21,590,289.21,604" style="stroke: #516F42; stroke-width: 1.0;"/><!--MD5=[cb6fd4cbd7cd4e6e71d504242e88f6a4]
reverse link Phpolar\\Phpolar\\Core\\AbstractPropertyNameExtractor to Phpolar\\Phpolar\\Core\\DefaultLabelFormat--><path d="M263,560.8 C263,560.8 263,535.33 263,535.33 C263,535.33 345.12,535.33 409.91,535.33 " fill="none" id="Phpolar\\Phpolar\\Core\\AbstractPropertyNameExtractor&lt;-Phpolar\\Phpolar\\Core\\DefaultLabelFormat" style="stroke: #516F42; stroke-width: 1.0;"/><polygon fill="none" points="270,560.8,263,580.8,256,560.8,270,560.8" style="stroke: #516F42; stroke-width: 1.0;"/><!--MD5=[e17d93525225066363571536f4178250]
reverse link RuntimeException to Phpolar\\Phpolar\\Core\\Exception\\InvalidInputTypeCastToStringException--><path d="M154,92.8 C154,92.8 154,75 154,75 C154,75 258.27,75 350.11,75 " fill="none" id="RuntimeException&lt;-Phpolar\\Phpolar\\Core\\Exception\\InvalidInputTypeCastToStringException" style="stroke: #516F42; stroke-width: 1.0;"/><polygon fill="none" points="161,92.8,154,112.8,147,92.8,161,92.8" style="stroke: #516F42; stroke-width: 1.0;"/><!--MD5=[8aa5510a1fccd7bb8488689b77b80e71]
reverse link RuntimeException to Phpolar\\Phpolar\\Core\\Validation\\Exception\\ValidatorWithNoErrorMessageException--><path d="M154,165.19 C154,165.19 154,182 154,182 C154,182 255.74,182 346.74,182 " fill="none" id="RuntimeException&lt;-Phpolar\\Phpolar\\Core\\Validation\\Exception\\ValidatorWithNoErrorMessageException" style="stroke: #516F42; stroke-width: 1.0;"/><polygon fill="none" points="147,165.19,154,145.19,161,165.19,147,165.19" style="stroke: #516F42; stroke-width: 1.0;"/><!--MD5=[c9730da2091e8dec0f4336e83b86964d]
link Phpolar\\Phpolar\\Core\\ContainerLoader to Phpolar\\Phpolar\\Core\\PropertyTypeNotDeclared--><!--MD5=[132babfb3f26ef29f625c9a0d164f6be]
link Phpolar\\Phpolar\\Core\\ContainerLoader to Phpolar\\Phpolar\\Core\\SizeNotConfigured--><!--MD5=[bca3d8c64364f6ccc95e94a6ff12a984]
link Phpolar\\Phpolar\\Core\\Routing\\RouteNotRegistered to Phpolar\\Phpolar\\Core\\Routing\\RouteParamMap--><!--MD5=[16e7c6de7303b3b1ebd8afd4d88fc3fe]
link Phpolar\\Phpolar\\Core\\Routing\\RouteNotRegistered to Phpolar\\Phpolar\\Core\\Routing\\RouteParamNotExists--><!--MD5=[0beec83c2e3e7ce29b6389c908761c91]
@startuml
   skinparam ArrowColor #516f42
   skinparam activityBorderColor #516f42
   skinparam activityBackgroundColor #ffffff
   skinparam activityDiamondBorderColor #516f42
   skinparam activityDiamondBackgroundColor #ffffff
   skinparam shadowing false

skinparam shadowing false
skinparam linetype ortho
hide empty members
left to right direction
set namespaceSeparator \\


abstract class \\Phpolar\\Phpolar\\Core\\AbstractPropertyNameExtractor {
}

abstract class \\Phpolar\\Phpolar\\Core\\AbstractPropertyValueExtractor implements \\Phpolar\\Phpolar\\Core\\PropertyValueSetterInterface {
}

class \\Phpolar\\Phpolar\\Core\\ContainerLoader {
}

class \\Phpolar\\Phpolar\\Core\\DefaultColumnName extends \\Phpolar\\Phpolar\\Core\\AbstractPropertyNameExtractor {
}

class \\Phpolar\\Phpolar\\Core\\DefaultLabelFormat extends \\Phpolar\\Phpolar\\Core\\AbstractPropertyNameExtractor {
}

class \\Phpolar\\Phpolar\\Core\\PropertyTypeNotDeclared {
}

class \\Phpolar\\Phpolar\\Core\\SizeNotConfigured {
}

interface \\Phpolar\\Phpolar\\Core\\PropertyValueSetterInterface {
}

class \\Phpolar\\Phpolar\\Core\\Exception\\InvalidInputTypeCastToStringException extends \\RuntimeException {
}

class \\Phpolar\\Phpolar\\Core\\Routing\\RouteNotRegistered {
}

class \\Phpolar\\Phpolar\\Core\\Routing\\RouteParamMap {
}

class \\Phpolar\\Phpolar\\Core\\Routing\\RouteParamNotExists {
}

class \\Phpolar\\Phpolar\\Core\\Validation\\Exception\\ValidatorWithNoErrorMessageException extends \\RuntimeException {
}

@enduml

PlantUML version 1.2020.02(Sun Mar 01 04:22:07 CST 2020)
(GPL source distribution)
Java Runtime: OpenJDK Runtime Environment
JVM: OpenJDK 64-Bit Server VM
Java Version: 11.0.18+10-post-Ubuntu-0ubuntu122.04
Operating System: Linux
Default Encoding: UTF-8
Language: en
Country: US
--></g></svg>