<?xml version="1.0" encoding="UTF-8" standalone="no"?><svg xmlns="http://www.w3.org/2000/svg" xmlns:xlink="http://www.w3.org/1999/xlink" contentScriptType="application/ecmascript" contentStyleType="text/css" height="534px" preserveAspectRatio="none" style="width:683px;height:534px;" version="1.1" viewBox="0 0 683 534" width="683px" zoomAndPan="magnify"><defs/><g><!--MD5=[6e42f78f80b986da6d510e1738ea0ecf]
cluster Phpolar\\Phpolar\\Core--><polygon fill="#FFFFFF" points="22,24,196,24,203,46.2969,618,46.2969,618,308,22,308,22,24" style="stroke: #000000; stroke-width: 1.5;"/><line style="stroke: #000000; stroke-width: 1.5;" x1="22" x2="203" y1="46.2969" y2="46.2969"/><text fill="#000000" font-family="sans-serif" font-size="14" font-weight="bold" lengthAdjust="spacingAndGlyphs" textLength="168" x="26" y="38.9951">Phpolar\Phpolar\Core</text><!--MD5=[5373439acb972b810ded654aa2e9f4b9]
cluster Phpolar\\Phpolar\\Core\\Exception--><polygon fill="#FFFFFF" points="334.5,332,590.5,332,597.5,354.2969,639.5,354.2969,639.5,415,334.5,415,334.5,332" style="stroke: #000000; stroke-width: 1.5;"/><line style="stroke: #000000; stroke-width: 1.5;" x1="334.5" x2="597.5" y1="354.2969" y2="354.2969"/><text fill="#000000" font-family="sans-serif" font-size="14" font-weight="bold" lengthAdjust="spacingAndGlyphs" textLength="250" x="338.5" y="346.9951">Phpolar\Phpolar\Core\Exception</text><!--MD5=[eeffe423de2d0aa9e623c1f457498603]
cluster Phpolar\\Phpolar\\Core\\Validation\\Exception--><polygon fill="#FFFFFF" points="313,439,651,439,658,461.2969,661,461.2969,661,522,313,522,313,439" style="stroke: #000000; stroke-width: 1.5;"/><line style="stroke: #000000; stroke-width: 1.5;" x1="313" x2="658" y1="461.2969" y2="461.2969"/><text fill="#000000" font-family="sans-serif" font-size="14" font-weight="bold" lengthAdjust="spacingAndGlyphs" textLength="332" x="317" y="453.9951">Phpolar\Phpolar\Core\Validation\Exception</text><!--MD5=[9b5c087fb1b9df3d5b02adf17a4b5856]
class Phpolar\\Phpolar\\Core\\AbstractPropertyNameExtractor--><rect fill="#FEFECE" height="32" id="Phpolar\\Phpolar\\Core\\AbstractPropertyNameExtractor" style="stroke: #A80036; stroke-width: 1.5;" width="231" x="38" y="59"/><ellipse cx="53" cy="75" fill="#A9DCDF" rx="11" ry="11" style="stroke: #A80036; stroke-width: 1.0;"/><path d="M53.1094,70.3438 L51.9531,75.4219 L54.2813,75.4219 L53.1094,70.3438 Z M51.625,68.1094 L54.6094,68.1094 L57.9688,80.5 L55.5156,80.5 L54.75,77.4375 L51.4688,77.4375 L50.7188,80.5 L48.2813,80.5 L51.625,68.1094 Z "/><text fill="#000000" font-family="sans-serif" font-size="12" font-style="italic" lengthAdjust="spacingAndGlyphs" textLength="199" x="67" y="79.1543">AbstractPropertyNameExtractor</text><!--MD5=[01ac4a6e3e82d07a6ffb02255465f1b9]
class Phpolar\\Phpolar\\Core\\AbstractPropertyValueExtractor--><rect fill="#FEFECE" height="32" id="Phpolar\\Phpolar\\Core\\AbstractPropertyValueExtractor" style="stroke: #A80036; stroke-width: 1.5;" width="230" x="372" y="193"/><ellipse cx="387" cy="209" fill="#A9DCDF" rx="11" ry="11" style="stroke: #A80036; stroke-width: 1.0;"/><path d="M387.1094,204.3438 L385.9531,209.4219 L388.2813,209.4219 L387.1094,204.3438 Z M385.625,202.1094 L388.6094,202.1094 L391.9688,214.5 L389.5156,214.5 L388.75,211.4375 L385.4688,211.4375 L384.7188,214.5 L382.2813,214.5 L385.625,202.1094 Z "/><text fill="#000000" font-family="sans-serif" font-size="12" font-style="italic" lengthAdjust="spacingAndGlyphs" textLength="198" x="401" y="213.1543">AbstractPropertyValueExtractor</text><!--MD5=[2a5f8359d1c9a3aeede0119cebcf73d1]
class Phpolar\\Phpolar\\Core\\PropertyValueSetterInterface--><rect fill="#FEFECE" height="32" id="Phpolar\\Phpolar\\Core\\PropertyValueSetterInterface" style="stroke: #A80036; stroke-width: 1.5;" width="216" x="45.5" y="126"/><ellipse cx="60.5" cy="142" fill="#B4A7E5" rx="11" ry="11" style="stroke: #A80036; stroke-width: 1.0;"/><path d="M56.4219,137.7656 L56.4219,135.6094 L63.8125,135.6094 L63.8125,137.7656 L61.3438,137.7656 L61.3438,145.8438 L63.8125,145.8438 L63.8125,148 L56.4219,148 L56.4219,145.8438 L58.8906,145.8438 L58.8906,137.7656 L56.4219,137.7656 Z "/><text fill="#000000" font-family="sans-serif" font-size="12" font-style="italic" lengthAdjust="spacingAndGlyphs" textLength="184" x="74.5" y="146.1543">PropertyValueSetterInterface</text><!--MD5=[bb7affcc6fd38462f395b0361b7e6f0b]
class Phpolar\\Phpolar\\Core\\DefaultColumnName--><rect fill="#FEFECE" height="32" id="Phpolar\\Phpolar\\Core\\DefaultColumnName" style="stroke: #A80036; stroke-width: 1.5;" width="159" x="407.5" y="126"/><ellipse cx="422.5" cy="142" fill="#ADD1B2" rx="11" ry="11" style="stroke: #A80036; stroke-width: 1.0;"/><path d="M425.4688,147.6406 Q424.8906,147.9375 424.25,148.0781 Q423.6094,148.2344 422.9063,148.2344 Q420.4063,148.2344 419.0781,146.5938 Q417.7656,144.9375 417.7656,141.8125 Q417.7656,138.6875 419.0781,137.0313 Q420.4063,135.375 422.9063,135.375 Q423.6094,135.375 424.25,135.5313 Q424.9063,135.6875 425.4688,135.9844 L425.4688,138.7031 Q424.8438,138.125 424.25,137.8594 Q423.6563,137.5781 423.0313,137.5781 Q421.6875,137.5781 421,138.6563 Q420.3125,139.7188 420.3125,141.8125 Q420.3125,143.9063 421,144.9844 Q421.6875,146.0469 423.0313,146.0469 Q423.6563,146.0469 424.25,145.7813 Q424.8438,145.5 425.4688,144.9219 L425.4688,147.6406 Z "/><text fill="#000000" font-family="sans-serif" font-size="12" lengthAdjust="spacingAndGlyphs" textLength="127" x="436.5" y="146.1543">DefaultColumnName</text><!--MD5=[bbc58e7a6434a9c0234912820a3191b5]
class Phpolar\\Phpolar\\Core\\DefaultLabelFormat--><rect fill="#FEFECE" height="32" id="Phpolar\\Phpolar\\Core\\DefaultLabelFormat" style="stroke: #A80036; stroke-width: 1.5;" width="154" x="410" y="59"/><ellipse cx="425" cy="75" fill="#ADD1B2" rx="11" ry="11" style="stroke: #A80036; stroke-width: 1.0;"/><path d="M427.9688,80.6406 Q427.3906,80.9375 426.75,81.0781 Q426.1094,81.2344 425.4063,81.2344 Q422.9063,81.2344 421.5781,79.5938 Q420.2656,77.9375 420.2656,74.8125 Q420.2656,71.6875 421.5781,70.0313 Q422.9063,68.375 425.4063,68.375 Q426.1094,68.375 426.75,68.5313 Q427.4063,68.6875 427.9688,68.9844 L427.9688,71.7031 Q427.3438,71.125 426.75,70.8594 Q426.1563,70.5781 425.5313,70.5781 Q424.1875,70.5781 423.5,71.6563 Q422.8125,72.7188 422.8125,74.8125 Q422.8125,76.9063 423.5,77.9844 Q424.1875,79.0469 425.5313,79.0469 Q426.1563,79.0469 426.75,78.7813 Q427.3438,78.5 427.9688,77.9219 L427.9688,80.6406 Z "/><text fill="#000000" font-family="sans-serif" font-size="12" lengthAdjust="spacingAndGlyphs" textLength="122" x="439" y="79.1543">DefaultLabelFormat</text><!--MD5=[beed2385eccd961a29d10e05fa30abc6]
class Phpolar\\Phpolar\\Core\\PropertyTypeNotDeclared--><rect fill="#FEFECE" height="32" id="Phpolar\\Phpolar\\Core\\PropertyTypeNotDeclared" style="stroke: #A80036; stroke-width: 1.5;" width="192" x="57.5" y="193"/><ellipse cx="72.5" cy="209" fill="#ADD1B2" rx="11" ry="11" style="stroke: #A80036; stroke-width: 1.0;"/><path d="M75.4688,214.6406 Q74.8906,214.9375 74.25,215.0781 Q73.6094,215.2344 72.9063,215.2344 Q70.4063,215.2344 69.0781,213.5938 Q67.7656,211.9375 67.7656,208.8125 Q67.7656,205.6875 69.0781,204.0313 Q70.4063,202.375 72.9063,202.375 Q73.6094,202.375 74.25,202.5313 Q74.9063,202.6875 75.4688,202.9844 L75.4688,205.7031 Q74.8438,205.125 74.25,204.8594 Q73.6563,204.5781 73.0313,204.5781 Q71.6875,204.5781 71,205.6563 Q70.3125,206.7188 70.3125,208.8125 Q70.3125,210.9063 71,211.9844 Q71.6875,213.0469 73.0313,213.0469 Q73.6563,213.0469 74.25,212.7813 Q74.8438,212.5 75.4688,211.9219 L75.4688,214.6406 Z "/><text fill="#000000" font-family="sans-serif" font-size="12" lengthAdjust="spacingAndGlyphs" textLength="160" x="86.5" y="213.1543">PropertyTypeNotDeclared</text><!--MD5=[4688c3d85f768f09306f442b139146da]
class Phpolar\\Phpolar\\Core\\SizeNotConfigured--><rect fill="#FEFECE" height="32" id="Phpolar\\Phpolar\\Core\\SizeNotConfigured" style="stroke: #A80036; stroke-width: 1.5;" width="146" x="80.5" y="260"/><ellipse cx="95.5" cy="276" fill="#ADD1B2" rx="11" ry="11" style="stroke: #A80036; stroke-width: 1.0;"/><path d="M98.4688,281.6406 Q97.8906,281.9375 97.25,282.0781 Q96.6094,282.2344 95.9063,282.2344 Q93.4063,282.2344 92.0781,280.5938 Q90.7656,278.9375 90.7656,275.8125 Q90.7656,272.6875 92.0781,271.0313 Q93.4063,269.375 95.9063,269.375 Q96.6094,269.375 97.25,269.5313 Q97.9063,269.6875 98.4688,269.9844 L98.4688,272.7031 Q97.8438,272.125 97.25,271.8594 Q96.6563,271.5781 96.0313,271.5781 Q94.6875,271.5781 94,272.6563 Q93.3125,273.7188 93.3125,275.8125 Q93.3125,277.9063 94,278.9844 Q94.6875,280.0469 96.0313,280.0469 Q96.6563,280.0469 97.25,279.7813 Q97.8438,279.5 98.4688,278.9219 L98.4688,281.6406 Z "/><text fill="#000000" font-family="sans-serif" font-size="12" lengthAdjust="spacingAndGlyphs" textLength="114" x="109.5" y="280.1543">SizeNotConfigured</text><!--MD5=[911145b08a7e52c54aa703f8d31c58de]
class Phpolar\\Phpolar\\Core\\Exception\\InvalidInputTypeCastToStringException--><rect fill="#FEFECE" height="32" id="Phpolar\\Phpolar\\Core\\Exception\\InvalidInputTypeCastToStringException" style="stroke: #A80036; stroke-width: 1.5;" width="273" x="350.5" y="367"/><ellipse cx="365.5" cy="383" fill="#ADD1B2" rx="11" ry="11" style="stroke: #A80036; stroke-width: 1.0;"/><path d="M368.4688,388.6406 Q367.8906,388.9375 367.25,389.0781 Q366.6094,389.2344 365.9063,389.2344 Q363.4063,389.2344 362.0781,387.5938 Q360.7656,385.9375 360.7656,382.8125 Q360.7656,379.6875 362.0781,378.0313 Q363.4063,376.375 365.9063,376.375 Q366.6094,376.375 367.25,376.5313 Q367.9063,376.6875 368.4688,376.9844 L368.4688,379.7031 Q367.8438,379.125 367.25,378.8594 Q366.6563,378.5781 366.0313,378.5781 Q364.6875,378.5781 364,379.6563 Q363.3125,380.7188 363.3125,382.8125 Q363.3125,384.9063 364,385.9844 Q364.6875,387.0469 366.0313,387.0469 Q366.6563,387.0469 367.25,386.7813 Q367.8438,386.5 368.4688,385.9219 L368.4688,388.6406 Z "/><text fill="#000000" font-family="sans-serif" font-size="12" lengthAdjust="spacingAndGlyphs" textLength="241" x="379.5" y="387.1543">InvalidInputTypeCastToStringException</text><!--MD5=[b4e4f33fa9c02cbfe7681ec5751bab8d]
class Phpolar\\Phpolar\\Core\\Validation\\Exception\\ValidatorWithNoErrorMessageException--><rect fill="#FEFECE" height="32" id="Phpolar\\Phpolar\\Core\\Validation\\Exception\\ValidatorWithNoErrorMessageException" style="stroke: #A80036; stroke-width: 1.5;" width="280" x="347" y="474"/><ellipse cx="362" cy="490" fill="#ADD1B2" rx="11" ry="11" style="stroke: #A80036; stroke-width: 1.0;"/><path d="M364.9688,495.6406 Q364.3906,495.9375 363.75,496.0781 Q363.1094,496.2344 362.4063,496.2344 Q359.9063,496.2344 358.5781,494.5938 Q357.2656,492.9375 357.2656,489.8125 Q357.2656,486.6875 358.5781,485.0313 Q359.9063,483.375 362.4063,483.375 Q363.1094,483.375 363.75,483.5313 Q364.4063,483.6875 364.9688,483.9844 L364.9688,486.7031 Q364.3438,486.125 363.75,485.8594 Q363.1563,485.5781 362.5313,485.5781 Q361.1875,485.5781 360.5,486.6563 Q359.8125,487.7188 359.8125,489.8125 Q359.8125,491.9063 360.5,492.9844 Q361.1875,494.0469 362.5313,494.0469 Q363.1563,494.0469 363.75,493.7813 Q364.3438,493.5 364.9688,492.9219 L364.9688,495.6406 Z "/><text fill="#000000" font-family="sans-serif" font-size="12" lengthAdjust="spacingAndGlyphs" textLength="248" x="376" y="494.1543">ValidatorWithNoErrorMessageException</text><!--MD5=[5c6c7d52e42032554528404b62c1d271]
class RuntimeException--><rect fill="#FEFECE" height="32" id="RuntimeException" style="stroke: #A80036; stroke-width: 1.5;" width="144" x="81.5" y="421"/><ellipse cx="96.5" cy="437" fill="#ADD1B2" rx="11" ry="11" style="stroke: #A80036; stroke-width: 1.0;"/><path d="M99.4688,442.6406 Q98.8906,442.9375 98.25,443.0781 Q97.6094,443.2344 96.9063,443.2344 Q94.4063,443.2344 93.0781,441.5938 Q91.7656,439.9375 91.7656,436.8125 Q91.7656,433.6875 93.0781,432.0313 Q94.4063,430.375 96.9063,430.375 Q97.6094,430.375 98.25,430.5313 Q98.9063,430.6875 99.4688,430.9844 L99.4688,433.7031 Q98.8438,433.125 98.25,432.8594 Q97.6563,432.5781 97.0313,432.5781 Q95.6875,432.5781 95,433.6563 Q94.3125,434.7188 94.3125,436.8125 Q94.3125,438.9063 95,439.9844 Q95.6875,441.0469 97.0313,441.0469 Q97.6563,441.0469 98.25,440.7813 Q98.8438,440.5 99.4688,439.9219 L99.4688,442.6406 Z "/><text fill="#000000" font-family="sans-serif" font-size="12" lengthAdjust="spacingAndGlyphs" textLength="112" x="110.5" y="441.1543">RuntimeException</text><!--MD5=[4bfb2bdfd0851e92429cdbaf1bf734f3]
reverse link Phpolar\\Phpolar\\Core\\PropertyValueSetterInterface to Phpolar\\Phpolar\\Core\\AbstractPropertyValueExtractor--><path d="M256,178.22 C256,178.22 256,209 256,209 C256,209 313.98,209 371.84,209 " fill="none" id="Phpolar\\Phpolar\\Core\\PropertyValueSetterInterface&lt;-Phpolar\\Phpolar\\Core\\AbstractPropertyValueExtractor" style="stroke: #516F42; stroke-width: 1.0; stroke-dasharray: 7.0,7.0;"/><polygon fill="none" points="249,178.22,256,158.22,263,178.22,249,178.22" style="stroke: #516F42; stroke-width: 1.0;"/><!--MD5=[e34938d5faa0195025519e91b108da0a]
reverse link Phpolar\\Phpolar\\Core\\AbstractPropertyNameExtractor to Phpolar\\Phpolar\\Core\\DefaultColumnName--><path d="M266,111.22 C266,111.22 266,142 266,142 C266,142 343.91,142 407.21,142 " fill="none" id="Phpolar\\Phpolar\\Core\\AbstractPropertyNameExtractor&lt;-Phpolar\\Phpolar\\Core\\DefaultColumnName" style="stroke: #516F42; stroke-width: 1.0;"/><polygon fill="none" points="259,111.22,266,91.22,273,111.22,259,111.22" style="stroke: #516F42; stroke-width: 1.0;"/><!--MD5=[cb6fd4cbd7cd4e6e71d504242e88f6a4]
reverse link Phpolar\\Phpolar\\Core\\AbstractPropertyNameExtractor to Phpolar\\Phpolar\\Core\\DefaultLabelFormat--><path d="M289.21,75 C289.21,75 409.96,75 409.96,75 " fill="none" id="Phpolar\\Phpolar\\Core\\AbstractPropertyNameExtractor&lt;-Phpolar\\Phpolar\\Core\\DefaultLabelFormat" style="stroke: #516F42; stroke-width: 1.0;"/><polygon fill="none" points="289.21,82,269.21,75,289.21,68,289.21,82" style="stroke: #516F42; stroke-width: 1.0;"/><!--MD5=[e17d93525225066363571536f4178250]
reverse link RuntimeException to Phpolar\\Phpolar\\Core\\Exception\\InvalidInputTypeCastToStringException--><path d="M154,400.8 C154,400.8 154,383 154,383 C154,383 258.27,383 350.11,383 " fill="none" id="RuntimeException&lt;-Phpolar\\Phpolar\\Core\\Exception\\InvalidInputTypeCastToStringException" style="stroke: #516F42; stroke-width: 1.0;"/><polygon fill="none" points="161,400.8,154,420.8,147,400.8,161,400.8" style="stroke: #516F42; stroke-width: 1.0;"/><!--MD5=[8aa5510a1fccd7bb8488689b77b80e71]
reverse link RuntimeException to Phpolar\\Phpolar\\Core\\Validation\\Exception\\ValidatorWithNoErrorMessageException--><path d="M154,473.19 C154,473.19 154,490 154,490 C154,490 255.74,490 346.74,490 " fill="none" id="RuntimeException&lt;-Phpolar\\Phpolar\\Core\\Validation\\Exception\\ValidatorWithNoErrorMessageException" style="stroke: #516F42; stroke-width: 1.0;"/><polygon fill="none" points="147,473.19,154,453.19,161,473.19,147,473.19" style="stroke: #516F42; stroke-width: 1.0;"/><!--MD5=[a5475579c92cbd075d5d76521caebce6]
@startuml
   skinparam ArrowColor #516f42
   skinparam activityBorderColor #516f42
   skinparam activityBackgroundColor #ffffff
   skinparam activityDiamondBorderColor #516f42
   skinparam activityDiamondBackgroundColor #ffffff
   skinparam shadowing false

skinparam shadowing false
skinparam linetype ortho
hide empty members
left to right direction
set namespaceSeparator \\


abstract class \\Phpolar\\Phpolar\\Core\\AbstractPropertyNameExtractor {
}

abstract class \\Phpolar\\Phpolar\\Core\\AbstractPropertyValueExtractor implements \\Phpolar\\Phpolar\\Core\\PropertyValueSetterInterface {
}

class \\Phpolar\\Phpolar\\Core\\DefaultColumnName extends \\Phpolar\\Phpolar\\Core\\AbstractPropertyNameExtractor {
}

class \\Phpolar\\Phpolar\\Core\\DefaultLabelFormat extends \\Phpolar\\Phpolar\\Core\\AbstractPropertyNameExtractor {
}

class \\Phpolar\\Phpolar\\Core\\PropertyTypeNotDeclared {
}

class \\Phpolar\\Phpolar\\Core\\SizeNotConfigured {
}

interface \\Phpolar\\Phpolar\\Core\\PropertyValueSetterInterface {
}

class \\Phpolar\\Phpolar\\Core\\Exception\\InvalidInputTypeCastToStringException extends \\RuntimeException {
}

class \\Phpolar\\Phpolar\\Core\\Validation\\Exception\\ValidatorWithNoErrorMessageException extends \\RuntimeException {
}

@enduml

PlantUML version 1.2020.02(Sun Mar 01 04:22:07 CST 2020)
(GPL source distribution)
Java Runtime: OpenJDK Runtime Environment
JVM: OpenJDK 64-Bit Server VM
Java Version: 11.0.17+8-post-Ubuntu-1ubuntu222.04
Operating System: Linux
Default Encoding: UTF-8
Language: en
Country: US
--></g></svg>
